<svg width="53" height="70" viewBox="0 0 53 70" fill="none" xmlns="http://www.w3.org/2000/svg">
<g clip-path="url(#clip0_98_2)">
<path d="M23.1602 64.3398C24.8691 66.0488 27.6445 66.0488 29.3535 64.3398L51.2285 42.4648C52.9375 40.7559 52.9375 37.9805 51.2285 36.2715C49.5195 34.5625 46.7441 34.5625 45.0352 36.2715L30.625 50.6953V8.75C30.625 6.33008 28.6699 4.375 26.25 4.375C23.8301 4.375 21.875 6.33008 21.875 8.75V50.6816L7.46484 36.2852C5.75586 34.5762 2.98047 34.5762 1.27148 36.2852C-0.4375 37.9941 -0.4375 40.7695 1.27148 42.4785L23.1465 64.3535L23.1602 64.3398Z" fill="white"/>
</g>
<defs>
<clipPath id="clip0_98_2">
<rect width="52.5" height="70" fill="white"/>
</clipPath>
</defs>
</svg>
